REM DIRINDEX 1\6,1\2\7,1\2\8,1\2\9,1\3\10,1\3\11,1\4\12,1\4\13,1\4\14,1\5\15,1\5\16,1\5\17
REM DIRNAME cjc040,folder01,folder02,folder03,folder04,folder05,folder06,folder07,folder08,folder09,folder10,folder11,folder12,folder13,folder14,folder15,folder16
TITLE ""
FILE "P2Q_t_0322-0339.mp3" MP3
  TRACK 01 AUDIO
    TITLE "10:cjc040_2294"
    INDEX 01 00:00:00
  TRACK 02 AUDIO
    TITLE "0:"
    INDEX 01 00:01:07
  TRACK 03 AUDIO
    TITLE "11:cjc040_2295"
    INDEX 01 00:01:56
  TRACK 04 AUDIO
    TITLE "0:"
    INDEX 01 00:03:17
  TRACK 05 AUDIO
    TITLE "10:cjc040_2296"
    INDEX 01 00:03:72
  TRACK 06 AUDIO
    TITLE "0:"
    INDEX 01 00:04:74
  TRACK 07 AUDIO
    TITLE "11:cjc040_2297"
    INDEX 01 00:05:48
  TRACK 08 AUDIO
    TITLE "0:"
    INDEX 01 00:08:21
  TRACK 09 AUDIO
    TITLE "10:cjc040_2298"
    INDEX 01 00:08:73
  TRACK 10 AUDIO
    TITLE "0:"
    INDEX 01 00:10:14
  TRACK 11 AUDIO
    TITLE "11:cjc040_2299"
    INDEX 01 00:10:66
  TRACK 12 AUDIO
    TITLE "0:"
    INDEX 01 00:12:18
  TRACK 13 AUDIO
    TITLE "10:cjc040_2300"
    INDEX 01 00:13:00
  TRACK 14 AUDIO
    TITLE "0:"
    INDEX 01 00:14:29
  TRACK 15 AUDIO
    TITLE "11:cjc040_2301"
    INDEX 01 00:15:09
  TRACK 16 AUDIO
    TITLE "0:"
    INDEX 01 00:16:40
  TRACK 17 AUDIO
    TITLE "10:cjc040_2302"
    INDEX 01 00:17:20
  TRACK 18 AUDIO
    TITLE "0:"
    INDEX 01 00:18:27
  TRACK 19 AUDIO
    TITLE "11:cjc040_2303"
    INDEX 01 00:19:13
  TRACK 20 AUDIO
    TITLE "0:"
    INDEX 01 00:20:30
  TRACK 21 AUDIO
    TITLE "10:cjc040_2304"
    INDEX 01 00:21:11
  TRACK 22 AUDIO
    TITLE "0:"
    INDEX 01 00:22:32
  TRACK 23 AUDIO
    TITLE "11:cjc040_2305"
    INDEX 01 00:23:18
  TRACK 24 AUDIO
    TITLE "0:"
    INDEX 01 00:24:35
  TRACK 25 AUDIO
    TITLE "10:cjc040_2306"
    INDEX 01 00:25:15
  TRACK 26 AUDIO
    TITLE "0:"
    INDEX 01 00:26:38
  TRACK 27 AUDIO
    TITLE "11:cjc040_2307"
    INDEX 01 00:27:18
  TRACK 28 AUDIO
    TITLE "0:"
    INDEX 01 00:28:39
  TRACK 29 AUDIO
    TITLE "10:cjc040_2308"
    INDEX 01 00:29:15
  TRACK 30 AUDIO
    TITLE "0:"
    INDEX 01 00:30:22
  TRACK 31 AUDIO
    TITLE "11:cjc040_2309"
    INDEX 01 00:31:00
  TRACK 32 AUDIO
    TITLE "0:"
    INDEX 01 00:32:21
  TRACK 33 AUDIO
    TITLE "10:cjc040_2310"
    INDEX 01 00:33:11
  TRACK 34 AUDIO
    TITLE "0:"
    INDEX 01 00:34:26
  TRACK 35 AUDIO
    TITLE "11:cjc040_2311"
    INDEX 01 00:35:04
  TRACK 36 AUDIO
    TITLE "0:"
    INDEX 01 00:38:43
  TRACK 37 AUDIO
    TITLE "10:cjc040_2312"
    INDEX 01 00:39:23
  TRACK 38 AUDIO
    TITLE "0:"
    INDEX 01 00:40:56
  TRACK 39 AUDIO
    TITLE "11:cjc040_2313"
    INDEX 01 00:41:38
  TRACK 40 AUDIO
    TITLE "0:"
    INDEX 01 00:42:51
  TRACK 41 AUDIO
    TITLE "10:cjc040_2314"
    INDEX 01 00:43:33
  TRACK 42 AUDIO
    TITLE "0:"
    INDEX 01 00:44:38
  TRACK 43 AUDIO
    TITLE "11:cjc040_2315"
    INDEX 01 00:45:22
  TRACK 44 AUDIO
    TITLE "0:"
    INDEX 01 00:47:48
  TRACK 45 AUDIO
    TITLE "10:cjc040_2316"
    INDEX 01 00:48:28
  TRACK 46 AUDIO
    TITLE "0:"
    INDEX 01 00:49:39
  TRACK 47 AUDIO
    TITLE "11:cjc040_2317"
    INDEX 01 00:50:19
  TRACK 48 AUDIO
    TITLE "0:"
    INDEX 01 00:51:34
  TRACK 49 AUDIO
    TITLE "10:cjc040_2318"
    INDEX 01 00:52:22
  TRACK 50 AUDIO
    TITLE "0:"
    INDEX 01 00:53:37
  TRACK 51 AUDIO
    TITLE "11:cjc040_2319"
    INDEX 01 00:54:19
  TRACK 52 AUDIO
    TITLE "0:"
    INDEX 01 00:57:41
  TRACK 53 AUDIO
    TITLE "10:cjc040_2320"
    INDEX 01 00:58:22
  TRACK 54 AUDIO
    TITLE "0:"
    INDEX 01 00:59:30
  TRACK 55 AUDIO
    TITLE "11:cjc040_2321"
    INDEX 01 01:00:12
  TRACK 56 AUDIO
    TITLE "0:"
    INDEX 01 01:04:64
  TRACK 57 AUDIO
    TITLE "10:cjc040_2322"
    INDEX 01 01:05:42
  TRACK 58 AUDIO
    TITLE "0:"
    INDEX 01 01:06:51
  TRACK 59 AUDIO
    TITLE "11:cjc040_2323"
    INDEX 01 01:07:33
  TRACK 60 AUDIO
    TITLE "0:"
    INDEX 01 01:09:69
  TRACK 61 AUDIO
    TITLE "10:cjc040_2324"
    INDEX 01 01:10:45
  TRACK 62 AUDIO
    TITLE "0:"
    INDEX 01 01:11:58
  TRACK 63 AUDIO
    TITLE "11:cjc040_2325"
    INDEX 01 01:12:42
  TRACK 64 AUDIO
    TITLE "0:"
    INDEX 01 01:14:02
  TRACK 65 AUDIO
    TITLE "10:cjc040_2326"
    INDEX 01 01:14:55
  TRACK 66 AUDIO
    TITLE "0:"
    INDEX 01 01:15:70
  TRACK 67 AUDIO
    TITLE "11:cjc040_2327"
    INDEX 01 01:16:48
  TRACK 68 AUDIO
    TITLE "0:"
    INDEX 01 01:18:62
  TRACK 69 AUDIO
    TITLE "10:cjc040_2328"
    INDEX 01 01:19:46
  TRACK 70 AUDIO
    TITLE "0:"
    INDEX 01 01:20:40
  TRACK 71 AUDIO
    TITLE "11:cjc040_2329"
    INDEX 01 01:21:25
  TRACK 72 AUDIO
    TITLE "0:"
    INDEX 01 01:26:56
